<?xml version="1.0" encoding="UTF-8" standalone="no"?>
<svg
   xmlns:dc="http://purl.org/dc/elements/1.1/"
   xmlns:cc="http://creativecommons.org/ns#"
   xmlns:rdf="http://www.w3.org/1999/02/22-rdf-syntax-ns#"
   xmlns:svg="http://www.w3.org/2000/svg"
   xmlns="http://www.w3.org/2000/svg"
   xmlns:sodipodi="http://sodipodi.sourceforge.net/DTD/sodipodi-0.dtd"
   xmlns:inkscape="http://www.inkscape.org/namespaces/inkscape"
   height="512"
   width="512"
   inkscape:version="1.0beta2 (2b71d25, 2019-12-03)"
   sodipodi:docname="alertas_ec.svg"
   xml:space="preserve"
   viewBox="1586.1 12.6 511.99999 512"
   y="0px"
   x="0px"
   id="Layer_1"
   version="1.1"><metadata
   id="metadata850"><rdf:RDF><cc:Work
       rdf:about=""><dc:format>image/svg+xml</dc:format><dc:type
         rdf:resource="http://purl.org/dc/dcmitype/StillImage" /><dc:title></dc:title></cc:Work></rdf:RDF></metadata><defs
   id="defs848">
	
	
	
	
</defs><sodipodi:namedview
   inkscape:current-layer="Layer_1"
   inkscape:window-maximized="0"
   inkscape:window-y="0"
   inkscape:window-x="0"
   inkscape:cy="355.3125"
   inkscape:cx="298.94152"
   inkscape:zoom="1.182058"
   showgrid="false"
   id="namedview846"
   inkscape:window-height="1120"
   inkscape:window-width="1792"
   inkscape:pageshadow="2"
   inkscape:pageopacity="0"
   guidetolerance="10"
   gridtolerance="10"
   objecttolerance="10"
   borderopacity="1"
   inkscape:document-rotation="0"
   bordercolor="#666666"
   pagecolor="#ffffff" />
<style
   id="style833"
   type="text/css">
	.st0{fill:#EF7816;}
	.st1{fill:#F6BF26;}
	.st2{fill:#F6C029;}
	.st3{fill:#F2A600;}
</style>

<g
   transform="translate(-20.10001,-28.250161)"
   id="g1844"><ellipse
     id="ellipse835"
     ry="47.583492"
     rx="42.247841"
     cy="481.8046"
     cx="1862.2089"
     class="st0"
     style="fill:#a9454b;fill-opacity:1;stroke-width:0.874696" /><g
     id="g1773"
     transform="matrix(0.87469651,0,0,0.87469651,233.37553,37.196362)"><path
       transform="translate(1586.1,12.6)"
       d="M 106.33203,393.57812 46.509766,453.40039 V 477.5 H 505.60938 v -24.09961 l -59.82032,-59.82227 z"
       style="fill:#ff4b55;stroke-width:1.70719"
       id="path852"
       inkscape:connector-curvature="0" /><path
       transform="translate(1586.1,12.6)"
       d="m 275.97656,18.400391 a 36.299999,42.299999 0 0 0 -36.16601,42.298828 36.299999,42.299999 0 0 0 1.00976,9.908203 C 164.31485,87.377531 106.91016,157.7076 106.91016,242 v 8.41016 H 445.21094 V 242 c 0,-84.14762 -57.32756,-154.503354 -133.82032,-171.353516 a 36.299999,42.299999 0 0 0 1.01954,-9.947265 36.299999,42.299999 0 0 0 -36.30078,-42.298828 36.299999,42.299999 0 0 0 -0.13282,0 z"
       style="fill:#ffe15a;stroke-width:1.70719"
       id="path854"
       inkscape:connector-curvature="0" /><path
       transform="translate(1586.1,12.6)"
       d="M 106.91016,250.41016 V 393 l -0.57618,0.57617 H 445.78711 L 445.21094,393 V 250.41016 Z"
       style="fill:#41479b;stroke-width:1.70719"
       id="rect856"
       inkscape:connector-curvature="0" /></g><g
     id="g1747"
     transform="matrix(0.88134289,0,0,0.88134289,535.8797,149.76797)"><path
       inkscape:connector-curvature="0"
       style="fill:#ffe15a"
       d="m 1495.6737,203.66907 64.48,-55.268 v 79.987 c 0,13.481 -10.929,24.408 -24.408,24.408 v 0 c -6.03,0 -11.847,-2.232 -16.329,-6.265 l -23.743,-21.368 z"
       id="path858" /><path
       inkscape:connector-curvature="0"
       style="fill:#ff4b55"
       d="m 1529.6867,235.12007 -18.66,-16.794 v -27.815 l 33.775,-28.95 v 20.221 46.607 c 0,4.994 -4.063,9.056 -9.056,9.056 -2.241,0 -4.393,-0.826 -6.059,-2.325 z"
       id="path860" /><path
       inkscape:connector-curvature="0"
       style="fill:#41479b"
       d="m 1520.2377,182.61607 v 31.617 l 15.352,13.862 v -46.505 -12.131 l 9.212,-7.896 v 20.221 46.607 c 0,4.994 -4.063,9.056 -9.056,9.056 -2.241,0 -4.393,-0.825 -6.059,-2.325 l -18.66,-16.794 v -27.815 z"
       id="path862" /><path
       inkscape:connector-curvature="0"
       style="fill:#ffe15a"
       d="m 1514.0977,203.66907 -64.48,-55.268 v 79.987 c 0,13.481 10.929,24.408 24.408,24.408 v 0 c 6.03,0 11.847,-2.232 16.329,-6.265 l 23.743,-21.368 z"
       id="path864" /><path
       inkscape:connector-curvature="0"
       style="fill:#ff4b55"
       d="m 1480.0847,235.12007 18.66,-16.794 v -27.815 l -33.775,-28.95 v 20.221 46.607 c 0,4.994 4.063,9.056 9.056,9.056 2.241,0 4.393,-0.826 6.059,-2.325 z"
       id="path866" /><g
       transform="translate(1248.8857,-57.283929)"
       id="g874"><path
         inkscape:connector-curvature="0"
         style="fill:#41479b"
         d="m 240.648,239.9 v 31.617 l -15.352,13.862 v -46.505 -12.131 l -9.212,-7.896 v 20.221 46.607 c 0,4.994 4.063,9.056 9.056,9.056 2.241,0 4.393,-0.825 6.059,-2.325 l 18.66,-16.794 v -27.815 z"
         id="path868" /><rect
         x="309.04001"
         y="205.96001"
         style="fill:#41479b"
         width="4.414"
         height="26.448999"
         id="rect870" /><rect
         x="198.50999"
         y="205.96001"
         style="fill:#41479b"
         width="4.414"
         height="26.448999"
         id="rect872" /></g><g
       transform="translate(1248.8857,-57.283929)"
       id="g882"><path
         inkscape:connector-curvature="0"
         style="fill:#5a4646"
         d="m 246.788,193.404 c 0,0 6.141,-29.17 -15.352,-25.331 -21.493,3.838 -21.493,9.978 -46.057,22.261 0,0 27.635,6.141 39.916,3.071 0,0 9.212,12.281 18.423,15.352 h 9.212 z"
         id="path876" /><path
         inkscape:connector-curvature="0"
         style="fill:#5a4646"
         d="m 265.212,193.404 c 0,0 -6.141,-29.17 15.352,-25.331 21.493,3.838 21.493,9.978 46.057,22.261 0,0 -27.635,6.141 -39.916,3.071 0,0 -9.212,12.281 -18.423,15.352 h -9.212 z"
         id="path878" /><path
         inkscape:connector-curvature="0"
         style="fill:#5a4646"
         d="M 265.212,208.756 H 246.789 V 193.29 c 0,-5.025 4.073,-9.098 9.098,-9.098 h 0.226 c 5.025,0 9.098,4.073 9.098,9.098 v 15.466 z"
         id="path880" /></g><circle
       style="fill:#e6e1cd"
       cx="1504.8857"
       cy="136.11606"
       r="6.1409998"
       id="circle884" /><path
       inkscape:connector-curvature="0"
       style="fill:#ffd0af"
       d="m 1491.7087,132.15407 11.546,6.166 c 0.969,0.518 2.162,0.34 2.937,-0.437 v 0 c 0.974,-0.974 0.974,-2.552 0,-3.527 l -7.448,-7.448 h -1.791 c -2.896,0 -5.244,2.348 -5.244,5.246 z"
       id="path886" /><path
       inkscape:connector-curvature="0"
       style="fill:#ffaf94"
       d="m 1495.7127,133.04907 h -9.249 l 4.047,-4.738 c 0.76,-0.89 1.871,-1.402 3.042,-1.402 h 5.192 v 3.108 c 0,1.674 -1.358,3.032 -3.032,3.032 z"
       id="path888" /><g
       transform="translate(1248.8857,-57.283929)"
       id="g894"><path
         inkscape:connector-curvature="0"
         style="fill:#8cb400"
         d="m 282.186,208.764 c -2.072,-2.458 -2.514,-5.717 -1.504,-8.541 2.954,-0.516 6.091,0.471 8.162,2.931 1.77,2.101 2.283,4.772 1.784,7.272 0.614,1.042 1.364,2.382 2.189,3.964 0.041,-0.225 0.032,-0.448 0.096,-0.673 0.724,-2.546 2.743,-4.348 5.135,-4.958 1.713,1.778 2.483,4.373 1.759,6.918 -0.622,2.19 -2.227,3.777 -4.18,4.581 0.771,1.769 1.534,3.677 2.247,5.69 0.041,-0.118 0.044,-0.238 0.092,-0.355 1,-2.451 3.206,-4.019 5.65,-4.362 1.506,1.955 1.986,4.619 0.987,7.07 -0.875,2.144 -2.69,3.558 -4.764,4.121 1.067,4.213 1.775,8.683 1.775,13.183 h -3.071 c 0,-3.922 -0.602,-7.85 -1.511,-11.608 -1.895,0.612 -4.012,0.481 -5.845,-0.641 -2.236,-1.37 -3.416,-3.778 -3.361,-6.223 2.154,-1.16 4.835,-1.203 7.071,0.168 0.081,0.05 0.135,0.121 0.213,0.173 -0.658,-1.89 -1.358,-3.683 -2.077,-5.365 -1.843,0.871 -4.012,1.005 -6.002,0.071 -2.374,-1.114 -3.811,-3.379 -4.026,-5.815 2.006,-1.386 4.657,-1.722 7.023,-0.62 -0.846,-1.625 -1.608,-2.985 -2.206,-4.002 -2.115,-0.244 -4.152,-1.218 -5.636,-2.979 z"
         id="path890" /><path
         inkscape:connector-curvature="0"
         style="fill:#8cb400"
         d="m 229.814,208.764 c 2.071,-2.458 2.514,-5.717 1.504,-8.541 -2.954,-0.516 -6.091,0.471 -8.162,2.931 -1.77,2.101 -2.283,4.772 -1.784,7.272 -0.614,1.042 -1.364,2.382 -2.189,3.964 -0.041,-0.225 -0.032,-0.448 -0.096,-0.673 -0.724,-2.546 -2.743,-4.348 -5.135,-4.958 -1.713,1.778 -2.483,4.373 -1.759,6.918 0.622,2.19 2.227,3.777 4.18,4.581 -0.771,1.769 -1.534,3.677 -2.247,5.69 -0.041,-0.118 -0.044,-0.238 -0.092,-0.355 -1,-2.451 -3.206,-4.019 -5.65,-4.362 -1.506,1.955 -1.986,4.619 -0.986,7.07 0.875,2.144 2.69,3.558 4.764,4.121 -1.067,4.213 -1.775,8.683 -1.775,13.183 h 3.071 c 0,-3.922 0.602,-7.85 1.511,-11.608 1.895,0.612 4.012,0.481 5.844,-0.641 2.237,-1.37 3.416,-3.778 3.361,-6.223 -2.154,-1.16 -4.835,-1.203 -7.071,0.168 -0.081,0.05 -0.135,0.121 -0.213,0.173 0.658,-1.89 1.358,-3.683 2.077,-5.365 1.843,0.871 4.012,1.005 6.002,0.071 2.374,-1.114 3.811,-3.379 4.026,-5.815 -2.006,-1.386 -4.657,-1.722 -7.023,-0.62 0.845,-1.625 1.608,-2.985 2.206,-4.002 2.115,-0.244 4.152,-1.218 5.636,-2.979 z"
         id="path892" /></g><path
       inkscape:connector-curvature="0"
       style="fill:#ffe15a"
       d="m 1504.8857,219.02207 -64.48,-55.268 v 79.987 c 0,13.481 10.929,24.408 24.408,24.408 v 0 c 6.03,0 11.847,-2.232 16.329,-6.265 l 23.743,-21.368 z"
       id="path896" /><path
       inkscape:connector-curvature="0"
       style="fill:#ff4b55"
       d="m 1470.8727,250.47207 18.66,-16.794 v -27.815 l -33.775,-28.95 v 20.221 46.607 c 0,4.994 4.063,9.056 9.056,9.056 2.242,0 4.393,-0.825 6.059,-2.325 z"
       id="path898" /><path
       inkscape:connector-curvature="0"
       style="fill:#41479b"
       d="m 1480.3217,197.96807 v 31.617 l -15.352,13.862 v -46.505 -12.132 l -9.212,-7.896 v 20.221 46.607 c 0,4.994 4.063,9.056 9.056,9.056 2.241,0 4.393,-0.825 6.059,-2.325 l 18.66,-16.794 v -27.815 z"
       id="path900" /><path
       inkscape:connector-curvature="0"
       style="fill:#ffe15a"
       d="m 1504.8857,219.02207 64.48,-55.268 v 79.987 c 0,13.481 -10.929,24.408 -24.408,24.408 v 0 c -6.03,0 -11.847,-2.232 -16.329,-6.265 l -23.743,-21.368 z"
       id="path902" /><path
       inkscape:connector-curvature="0"
       style="fill:#ff4b55"
       d="m 1538.8987,250.47207 -18.66,-16.794 v -27.815 l 33.775,-28.95 v 20.221 46.607 c 0,4.994 -4.063,9.056 -9.056,9.056 -2.241,0 -4.393,-0.825 -6.059,-2.325 z"
       id="path904" /><path
       inkscape:connector-curvature="0"
       style="fill:#41479b"
       d="m 1529.4497,197.96807 v 31.617 l 15.352,13.862 v -46.505 -12.132 l 9.212,-7.896 v 20.221 46.607 c 0,4.994 -4.063,9.056 -9.056,9.056 -2.241,0 -4.393,-0.825 -6.059,-2.325 l -18.66,-16.794 v -27.815 z"
       id="path906" /><ellipse
       style="fill:#69c3ff"
       cx="1504.8857"
       cy="197.52608"
       rx="30.705"
       ry="46.060001"
       id="ellipse908" /><path
       inkscape:connector-curvature="0"
       style="fill:#009b64"
       d="m 1477.2507,209.81107 h 55.268 l 3.071,-12.281 -13.993,2.333 c -2.807,0.468 -5.678,-0.332 -7.839,-2.184 l -15.884,-13.615 c -1.419,-1.216 -3.228,-1.886 -5.097,-1.886 v 0 c -2.077,0 -4.07,0.825 -5.538,2.294 l -9.988,9.988 z"
       id="path910" /><path
       inkscape:connector-curvature="0"
       style="fill:#f5f5f5"
       d="m 1501.9727,195.46607 5.274,-3.37 -9.374,-8.034 c -1.419,-1.216 -3.228,-1.886 -5.097,-1.886 v 0 c -2.077,0 -4.07,0.825 -5.538,2.294 l -9.988,9.988 v 3.071 l 15.352,-3.071 2.714,1.357 c 2.127,1.064 4.655,0.93 6.657,-0.349 z"
       id="path912" /><polygon
       transform="translate(1248.8857,-57.283929)"
       style="fill:#5aa0e6"
       points="246.788,300.87 256,300.87 268.281,297.8 280.564,285.517 283.634,267.095 228.365,267.095 231.436,285.517 "
       id="polygon914" /><path
       inkscape:connector-curvature="0"
       style="fill:#ffc88c"
       d="m 1504.8857,246.65607 c -18.624,0 -33.775,-22.039 -33.775,-49.128 0,-27.089 15.151,-49.128 33.775,-49.128 18.624,0 33.775,22.039 33.775,49.128 0,27.089 -15.151,49.128 -33.775,49.128 z m 0,-92.113 c -15.236,0 -27.635,19.284 -27.635,42.986 0,23.702 12.397,42.987 27.635,42.987 15.238,0 27.634,-19.284 27.634,-42.987 0,-23.703 -12.398,-42.986 -27.634,-42.986 z"
       id="path916" /><g
       transform="translate(1248.8857,-57.283929)"
       id="g922"><path
         inkscape:connector-curvature="0"
         style="fill:#e1e1e1"
         d="m 234.339,300.595 c -2.574,-3.554 -6.406,-5.865 -10.746,-5.865 -4.34,0 -8.172,2.311 -10.746,5.865 4.39,1.217 7.982,4.781 9.683,9.479 0.685,1.892 1.064,3.968 1.064,6.15 -0.001,-7.597 4.588,-13.923 10.745,-15.629 z"
         id="path918" /><path
         inkscape:connector-curvature="0"
         style="fill:#e1e1e1"
         d="m 226.031,310.281 c 0,0 -0.241,4.094 -2.339,6.013 l -0.088,-0.072 c -2.099,-1.919 -2.339,-6.013 -2.339,-6.013 z"
         id="path920" /></g><path
       inkscape:connector-curvature="0"
       style="fill:#966446"
       d="m 1543.2857,254.33207 h -76.8 c -0.838,0 -1.516,-0.679 -1.516,-1.516 v -0.038 c 0,-0.838 0.679,-1.516 1.516,-1.516 h 76.8 c 0.838,0 1.516,0.679 1.516,1.516 v 0.038 c 0,0.837 -0.678,1.516 -1.516,1.516 z"
       id="path924" /><path
       inkscape:connector-curvature="0"
       style="fill:#be915a"
       d="m 1520.3127,258.93807 h -30.856 c -3.35,0 -6.066,-2.716 -6.066,-6.066 v -0.151 c 0,-3.35 2.716,-6.066 6.066,-6.066 h 30.856 c 3.35,0 6.066,2.716 6.066,6.066 v 0.151 c 0,3.35 -2.716,6.066 -6.066,6.066 z"
       id="path926" /><path
       inkscape:connector-curvature="0"
       style="fill:#b9b9b9"
       d="m 1477.2507,251.26207 h -10.746 c -0.847,0 -1.535,0.687 -1.535,1.535 0,0.848 0.687,1.535 1.535,1.535 h 10.746 z"
       id="path928" /><polygon
       transform="translate(1248.8857,-57.283929)"
       style="fill:#ff4b55"
       points="249.859,316.222 256,316.222 256,344.276 243.719,340.786 "
       id="polygon930" /><polygon
       transform="translate(1248.8857,-57.283929)"
       style="fill:#41479b"
       points="243.719,316.222 252.929,316.222 246.788,337.716 234.507,334.645 "
       id="polygon932" /><polygon
       transform="translate(1248.8857,-57.283929)"
       style="fill:#ffe15a"
       points="246.788,316.222 240.648,316.222 231.436,328.504 240.648,331.574 "
       id="polygon934" /><polygon
       transform="translate(1248.8857,-57.283929)"
       style="fill:#ff4b55"
       points="262.141,316.222 256,316.222 256,344.276 268.281,340.786 "
       id="polygon936" /><polygon
       transform="translate(1248.8857,-57.283929)"
       style="fill:#41479b"
       points="268.281,316.222 259.071,316.222 265.212,337.716 277.493,334.645 "
       id="polygon938" /><polygon
       transform="translate(1248.8857,-57.283929)"
       style="fill:#ffe15a"
       points="265.212,316.222 271.352,316.222 280.564,328.504 271.352,331.574 "
       id="polygon940" /><g
       transform="translate(1248.8857,-57.283929)"
       id="g946"><polygon
         style="fill:#41479b"
         points="193.728,221.035 193.728,247.482 189.314,243.034 189.314,221.035 "
         id="polygon942" /><polygon
         style="fill:#41479b"
         points="322.646,221.035 322.646,243.034 318.232,247.482 318.232,221.035 "
         id="polygon944" /></g></g></g></svg>
